<svg viewBox="0 0 500 500" xmlns="http://www.w3.org/2000/svg">
<circle cx="250" cy="250" fill="none" r="200" stroke="blue" stroke-width="2"/>
<circle cx="266.0588268212995" cy="358.6925390083649" fill="green" r="3"/>
<circle cx="107.05147425391384" cy="326.60869114363993" fill="green" r="3"/>
<circle cx="410.4824491065264" cy="489.00563335958714" fill="red" r="3"/>
<circle cx="144.72634370915418" cy="147.07532602680033" fill="green" r="3"/>
<circle cx="283.2928972682958" cy="202.93763204700147" fill="green" r="3"/>
<circle cx="80.03498009094535" cy="342.1825662663732" fill="green" r="3"/>
<circle cx="285.1081746709639" cy="363.2003498317754" fill="green" r="3"/>
<circle cx="150.83340017647697" cy="301.3665147532158" fill="green" r="3"/>
<circle cx="306.54654415832744" cy="213.26941394897975" fill="green" r="3"/>
<circle cx="66.96450655197962" cy="319.05514844601964" fill="green" r="3"/>
<circle cx="427.1353457984297" cy="438.19098741347574" fill="red" r="3"/>
<circle cx="350.73090546103265" cy="53.85946170611368" fill="red" r="3"/>
<circle cx="195.21434849288792" cy="200.10014791237023" fill="green" r="3"/>
<circle cx="331.7828696201332" cy="447.57207963750164" fill="red" r="3"/>
<circle cx="498.61232465300907" cy="78.07289902179717" fill="red" r="3"/>
<circle cx="156.6858801306679" cy="404.15912776478257" fill="green" r="3"/>
<circle cx="248.70742118398053" cy="489.88938229136346" fill="red" r="3"/>
<circle cx="240.81478621948222" cy="366.1068968670138" fill="green" r="3"/>
<circle cx="426.87150804522565" cy="447.4225417530816" fill="red" r="3"/>
<circle cx="339.5135646530271" cy="269.87405795203506" fill="green" r="3"/>
<circle cx="281.9189521456568" cy="224.7987536598805" fill="green" r="3"/>
<circle cx="35.89229137063322" cy="293.02176990318424" fill="red" r="3"/>
<circle cx="20.04614266530847" cy="291.9529146901571" fill="red" r="3"/>
<circle cx="157.19045502867593" cy="8.351691987602551" fill="red" r="3"/>
<circle cx="359.6928505692641" cy="404.47340130280804" fill="green" r="3"/>
<circle cx="200.29191884451342" cy="398.6908477172939" fill="green" r="3"/>
<circle cx="487.7853926702542" cy="330.54082854949826" fill="red" r="3"/>
<circle cx="389.34958596863356" cy="54.43551369200895" fill="red" r="3"/>
<circle cx="414.80902704663146" cy="160.56493810342047" fill="green" r="3"/>
<circle cx="171.34171553092074" cy="316.9819371093958" fill="green" r="3"/>
<circle cx="0.5903051907879543" cy="489.31978687837176" fill="red" r="3"/>
<circle cx="474.677700397118" cy="309.01327088565927" fill="red" r="3"/>
<circle cx="236.7799670908664" cy="306.6658749180588" fill="green" r="3"/>
<circle cx="116.0591681612593" cy="461.57952613746465" fill="red" r="3"/>
<circle cx="277.5342824295804" cy="358.89877519469457" fill="green" r="3"/>
<circle cx="430.7310873432302" cy="40.88064742166154" fill="red" r="3"/>
<circle cx="193.53649073561422" cy="77.07248730253603" fill="green" r="3"/>
<circle cx="300.6924718363073" cy="292.99756983609944" fill="green" r="3"/>
<circle cx="290.02807321901975" cy="288.24197759362306" fill="green" r="3"/>
<circle cx="461.5966904006187" cy="250.07871720459036" fill="red" r="3"/>
<circle cx="177.69554335477193" cy="364.3371110193526" fill="green" r="3"/>
<circle cx="349.9205028246601" cy="332.460931373278" fill="green" r="3"/>
<circle cx="136.4668144212831" cy="496.11024917448765" fill="red" r="3"/>
<circle cx="440.942797168534" cy="372.5067063515427" fill="red" r="3"/>
<circle cx="447.86476190982415" cy="429.3906590025448" fill="red" r="3"/>
<circle cx="467.21086483726447" cy="6.619937069308636" fill="red" r="3"/>
<circle cx="289.0425112147744" cy="95.00251863704325" fill="green" r="3"/>
<circle cx="111.15661862399642" cy="106.0537006025312" fill="green" r="3"/>
<circle cx="377.7885174130011" cy="286.8415841687437" fill="green" r="3"/>
<circle cx="131.26820394730768" cy="247.02206405411593" fill="green" r="3"/>
<circle cx="200.696887602467" cy="86.6294270405962" fill="green" r="3"/>
<circle cx="382.9231349091626" cy="77.11370965753096" fill="red" r="3"/>
<circle cx="466.1197233536745" cy="181.072043257599" fill="red" r="3"/>
<circle cx="103.30404554000307" cy="489.5390775700685" fill="red" r="3"/>
<circle cx="410.930568220852" cy="358.20394293599566" fill="green" r="3"/>
<circle cx="308.5410262983623" cy="334.6001777127868" fill="green" r="3"/>
<circle cx="414.78160199670276" cy="264.0610001533697" fill="green" r="3"/>
<circle cx="324.92686366387" cy="446.44083237138653" fill="red" r="3"/>
<circle cx="230.25088138968258" cy="14.239455243262425" fill="red" r="3"/>
<circle cx="318.4194003671958" cy="387.9428691245279" fill="green" r="3"/>
<circle cx="200.9069005437845" cy="386.5177129530156" fill="green" r="3"/>
<circle cx="171.34326849346286" cy="144.82230539871048" fill="green" r="3"/>
<circle cx="53.66899536042281" cy="310.96311596302024" fill="red" r="3"/>
<circle cx="306.24359483420136" cy="174.82034979856792" fill="green" r="3"/>
<circle cx="27.753934239381557" cy="44.27782797049752" fill="red" r="3"/>
<circle cx="219.09785575922675" cy="128.32525708369803" fill="green" r="3"/>
<circle cx="354.0401101524978" cy="204.0309943789433" fill="green" r="3"/>
<circle cx="91.98431242956731" cy="460.0597475883192" fill="red" r="3"/>
<circle cx="334.74196369977" cy="81.89640038781278" fill="green" r="3"/>
<circle cx="183.01903926843693" cy="430.6359402302807" fill="green" r="3"/>
<circle cx="36.85626228843764" cy="137.40738445942816" fill="red" r="3"/>
<circle cx="66.95982965415716" cy="485.1597926437112" fill="red" r="3"/>
<circle cx="255.10780307181042" cy="356.29681001560397" fill="green" r="3"/>
<circle cx="90.77763169296206" cy="100.71553822493497" fill="red" r="3"/>
<circle cx="405.42488301385924" cy="21.443250579742394" fill="red" r="3"/>
<circle cx="227.44828195026918" cy="115.33727452279832" fill="green" r="3"/>
<circle cx="409.75730861085265" cy="399.28137372870793" fill="red" r="3"/>
<circle cx="304.42094615359446" cy="201.44673785908932" fill="green" r="3"/>
<circle cx="103.7795912895212" cy="455.68018524237095" fill="red" r="3"/>
<circle cx="387.1207489343974" cy="284.814275640506" fill="green" r="3"/>
<circle cx="90.32894758668787" cy="318.6732905064563" fill="green" r="3"/>
<circle cx="184.73091103580535" cy="238.9231221961518" fill="green" r="3"/>
<circle cx="278.9244011313904" cy="251.24830785673663" fill="green" r="3"/>
<circle cx="129.07093829092102" cy="486.24022514561995" fill="red" r="3"/>
<circle cx="383.8150831196525" cy="118.7039169675034" fill="green" r="3"/>
<circle cx="379.23226692905075" cy="28.76343391224468" fill="red" r="3"/>
<circle cx="268.05230863546456" cy="270.5744285386695" fill="green" r="3"/>
<circle cx="320.6798644798817" cy="281.0489119185601" fill="green" r="3"/>
<circle cx="328.0462210230024" cy="146.8082552520749" fill="green" r="3"/>
<circle cx="461.4100380599445" cy="332.4409851207672" fill="red" r="3"/>
<circle cx="340.2607869837807" cy="192.48871774944257" fill="green" r="3"/>
<circle cx="442.55420470295047" cy="435.26834356614205" fill="red" r="3"/>
<circle cx="212.2544343059482" cy="220.05538723682787" fill="green" r="3"/>
<circle cx="121.6117632638473" cy="39.59968939460091" fill="red" r="3"/>
<circle cx="420.61343260457426" cy="46.51899645377723" fill="red" r="3"/>
<circle cx="390.35827194946603" cy="229.8404858092668" fill="green" r="3"/>
<circle cx="100.28089867230818" cy="96.51035524030208" fill="red" r="3"/>
<circle cx="58.38547840063381" cy="261.13489368154814" fill="green" r="3"/>
<circle cx="172.5512330084428" cy="308.7253080431431" fill="green" r="3"/>
<circle cx="262.44692674605733" cy="383.6727627584435" fill="green" r="3"/>
<circle cx="103.82141903266731" cy="179.8047725599931" fill="green" r="3"/>
<circle cx="71.71470519617053" cy="207.14405647896788" fill="green" r="3"/>
<circle cx="358.4257104118146" cy="136.46840018187802" fill="green" r="3"/>
<circle cx="308.22191667537544" cy="275.6980343095336" fill="green" r="3"/>
<circle cx="205.2492295886768" cy="45.26666905169475" fill="red" r="3"/>
<circle cx="198.14553124466855" cy="407.80085766506045" fill="green" r="3"/>
<circle cx="0.6192758081682294" cy="238.88889462609058" fill="red" r="3"/>
<circle cx="169.30978186949912" cy="327.5794871998969" fill="green" r="3"/>
<circle cx="258.86526176951924" cy="25.530783982472776" fill="red" r="3"/>
<circle cx="91.83945843893994" cy="248.6997462296226" fill="green" r="3"/>
<circle cx="124.98204200808041" cy="122.33379986353091" fill="green" r="3"/>
<circle cx="499.69438048539814" cy="333.55380834758716" fill="red" r="3"/>
<circle cx="363.9705218679211" cy="16.66690632538981" fill="red" r="3"/>
<circle cx="202.49965821152497" cy="345.440046684608" fill="green" r="3"/>
<circle cx="184.04883112695285" cy="351.22335783577137" fill="green" r="3"/>
<circle cx="370.84944839438447" cy="131.8726115089054" fill="green" r="3"/>
<circle cx="19.71336682893488" cy="4.765219994072868" fill="red" r="3"/>
<circle cx="470.50974405624424" cy="105.46422787690703" fill="red" r="3"/>
<circle cx="130.84862473087335" cy="63.15583925000003" fill="red" r="3"/>
<circle cx="361.6881906810312" cy="151.59855271406212" fill="green" r="3"/>
<circle cx="95.37838279344071" cy="150.3882133070569" fill="green" r="3"/>
<circle cx="279.74201825657315" cy="359.8340457047821" fill="green" r="3"/>
<circle cx="266.5626204445709" cy="350.49466134353366" fill="green" r="3"/>
<circle cx="136.25183624265205" cy="153.81642803259925" fill="green" r="3"/>
<circle cx="82.56744537803297" cy="495.00397475508186" fill="red" r="3"/>
<circle cx="266.2768908078934" cy="409.246871218203" fill="green" r="3"/>
<circle cx="367.86175908527525" cy="452.41545985461494" fill="red" r="3"/>
<circle cx="329.9831907932088" cy="279.01304051053637" fill="green" r="3"/>
<circle cx="447.53842344573303" cy="414.3285190533138" fill="red" r="3"/>
<circle cx="431.1964618954734" cy="298.1123803351215" fill="green" r="3"/>
<circle cx="60.807387671358754" cy="152.8308737770854" fill="red" r="3"/>
<circle cx="207.17014090046553" cy="141.7337152801294" fill="green" r="3"/>
<circle cx="167.4995966762334" cy="198.7651598988697" fill="green" r="3"/>
<circle cx="157.446442142175" cy="294.63487900669924" fill="green" r="3"/>
<circle cx="264.90495485530727" cy="461.49058589846516" fill="red" r="3"/>
<circle cx="325.1553548808626" cy="57.90136761111643" fill="red" r="3"/>
<circle cx="19.203980457166985" cy="468.4415892126366" fill="red" r="3"/>
<circle cx="333.05746671538566" cy="496.96850583403506" fill="red" r="3"/>
<circle cx="366.08938952177726" cy="273.11501060472347" fill="green" r="3"/>
<circle cx="230.49010640179384" cy="166.81075303294605" fill="green" r="3"/>
<circle cx="355.33171655751147" cy="158.64894526591536" fill="green" r="3"/>
<circle cx="24.94081434365559" cy="375.28644193033153" fill="red" r="3"/>
<circle cx="110.49858827726358" cy="136.6528271552893" fill="green" r="3"/>
<circle cx="11.35200500847622" cy="329.82435622815797" fill="red" r="3"/>
<circle cx="18.134490320076527" cy="380.84234028317684" fill="red" r="3"/>
<circle cx="0.5736126456444836" cy="51.831520881444725" fill="red" r="3"/>
<circle cx="440.9704396781082" cy="160.8437777974803" fill="red" r="3"/>
<circle cx="295.7959364238641" cy="140.30380187390438" fill="green" r="3"/>
<circle cx="132.01227482690118" cy="91.61907742902189" fill="green" r="3"/>
<circle cx="398.53615642752305" cy="238.63184498419804" fill="green" r="3"/>
<circle cx="448.38326739819064" cy="196.6850037134054" fill="red" r="3"/>
<circle cx="328.466569761251" cy="350.8372944084119" fill="green" r="3"/>
<circle cx="226.2490678789954" cy="102.16656385490899" fill="green" r="3"/>
<circle cx="266.29984242367317" cy="457.79412667175455" fill="red" r="3"/>
<circle cx="121.84477084325022" cy="33.19818056138313" fill="red" r="3"/>
<circle cx="494.67306172588724" cy="481.3943948349464" fill="red" r="3"/>
<circle cx="58.6801469767665" cy="219.85395104511989" fill="green" r="3"/>
<circle cx="228.66513309737428" cy="238.44937341869115" fill="green" r="3"/>
<circle cx="329.78419055752556" cy="428.79818244311315" fill="green" r="3"/>
<circle cx="352.6824750532298" cy="284.96201867941545" fill="green" r="3"/>
<circle cx="42.535585857497516" cy="63.26674278103174" fill="red" r="3"/>
<circle cx="101.94419838557091" cy="192.32727593994463" fill="green" r="3"/>
<circle cx="411.9476263068599" cy="487.083623620588" fill="red" r="3"/>
<circle cx="428.16903221400713" cy="288.69681742397654" fill="green" r="3"/>
<circle cx="418.2844973022074" cy="366.9705315236607" fill="red" r="3"/>
<circle cx="31.43446886159996" cy="253.86677059947587" fill="red" r="3"/>
<circle cx="390.0404706760877" cy="292.51688150185146" fill="green" r="3"/>
<circle cx="260.35054448853407" cy="142.12860113149964" fill="green" r="3"/>
<circle cx="168.46287057497526" cy="423.97557023609164" fill="green" r="3"/>
<circle cx="494.5297068376282" cy="317.9799764708633" fill="red" r="3"/>
<circle cx="409.31754261129413" cy="150.38994760080453" fill="green" r="3"/>
<circle cx="213.25386709124555" cy="415.50358101664096" fill="green" r="3"/>
<circle cx="323.301480148452" cy="262.11171862274966" fill="green" r="3"/>
<circle cx="22.33394102575748" cy="319.5296944505579" fill="red" r="3"/>
<circle cx="302.6228715753802" cy="459.6241909094455" fill="red" r="3"/>
<circle cx="13.313341456217213" cy="478.72694829672855" fill="red" r="3"/>
<circle cx="78.41355589417921" cy="136.23768425050335" fill="red" r="3"/>
<circle cx="31.116526152078613" cy="17.373487680688363" fill="red" r="3"/>
<circle cx="56.60069730255314" cy="164.59291842664285" fill="red" r="3"/>
<circle cx="280.7475831594264" cy="77.59109071162453" fill="green" r="3"/>
<circle cx="489.6605185654983" cy="18.04656438638586" fill="red" r="3"/>
<circle cx="110.17974193472449" cy="295.4286921686313" fill="green" r="3"/>
<circle cx="195.62032702361014" cy="362.6128242220251" fill="green" r="3"/>
<circle cx="184.29434650908408" cy="0.16439208273033581" fill="red" r="3"/>
<circle cx="262.54920235861306" cy="170.25457276293847" fill="green" r="3"/>
<circle cx="442.9847191269122" cy="407.9490615346281" fill="red" r="3"/>
<circle cx="101.7253282663955" cy="39.385508596055395" fill="red" r="3"/>
<circle cx="469.3192480046142" cy="428.3688956159494" fill="red" r="3"/>
<circle cx="279.7482656109564" cy="467.9921814152028" fill="red" r="3"/>
<circle cx="44.397596553867224" cy="326.95866481300703" fill="red" r="3"/>
<circle cx="348.7149872790771" cy="442.01413727662083" fill="red" r="3"/>
<circle cx="185.47696964370525" cy="360.66672886462067" fill="green" r="3"/>
<circle cx="138.62025487501054" cy="470.5102725622591" fill="red" r="3"/>
<circle cx="259.9851039075733" cy="388.76801442351467" fill="green" r="3"/>
<circle cx="10.011030542762757" cy="79.51070823034736" fill="red" r="3"/>
<circle cx="382.0156388098662" cy="482.47244074601736" fill="red" r="3"/>
<circle cx="108.70089566978794" cy="208.0667196808396" fill="green" r="3"/>
<circle cx="279.4577112500709" cy="182.69476199670814" fill="green" r="3"/>
<circle cx="255.10976438235085" cy="206.0443200208471" fill="green" r="3"/>
<circle cx="238.12485527475317" cy="66.46996453085598" fill="green" r="3"/>
</svg>