<svg width="500" height="500" xmlns="http://www.w3.org/2000/svg">
<rect width="100%" height="100%" fill="#EEEEEE" />
<circle cx="517.2811530997022" cy="-17.281153099702237" r="2" fill="red" />
<circle cx="508.3888579019278" cy="-8.388857901927793" r="2" fill="red" />
<circle cx="524.9667557501548" cy="-24.96675575015479" r="2" fill="red" />
<circle cx="519.8999292986726" cy="-19.899929298672646" r="2" fill="red" />
<circle cx="530.0634216733301" cy="-30.06342167333014" r="2" fill="red" />
<circle cx="516.5184944366604" cy="-16.518494436660433" r="2" fill="red" />
<circle cx="513.2155195307657" cy="-13.215519530765732" r="2" fill="red" />
<circle cx="513.3958774560003" cy="-13.395877456000392" r="2" fill="red" />
<circle cx="516.4956035962023" cy="-16.495603596202216" r="2" fill="red" />
<circle cx="516.9955313064539" cy="-16.995531306453927" r="2" fill="red" />
<circle cx="467.7978620728169" cy="32.202137927183145" r="2" fill="red" />
<circle cx="552.1479351556538" cy="-52.14793515565384" r="2" fill="red" />
<circle cx="484.99898072146806" cy="15.001019278531942" r="2" fill="red" />
<circle cx="484.9799451235433" cy="15.020054876456726" r="2" fill="red" />
<circle cx="542.7716645690915" cy="-42.77166456909151" r="2" fill="red" />
<circle cx="543.4519788567154" cy="-43.451978856715414" r="2" fill="red" />
<circle cx="538.9141529113933" cy="-38.91415291139327" r="2" fill="red" />
<circle cx="570.1354885170358" cy="-70.13548851703581" r="2" fill="red" />
<circle cx="525.9480200275235" cy="-25.948020027523512" r="2" fill="red" />
<circle cx="463.12075766017193" cy="36.87924233982807" r="2" fill="red" />
<circle cx="587.0662061673726" cy="-87.06620616737257" r="2" fill="red" />
<circle cx="499.8960035536703" cy="0.10399644632965988" r="2" fill="red" />
<circle cx="562.6967237373669" cy="-62.69672373736688" r="2" fill="red" />
<circle cx="496.1819223588384" cy="3.8180776411615795" r="2" fill="red" />
<circle cx="527.1626374865247" cy="-27.16263748652466" r="2" fill="red" />
<circle cx="579.0506039656221" cy="-79.05060396562214" r="2" fill="red" />
<circle cx="469.34784724308906" cy="30.65215275691091" r="2" fill="red" />
<circle cx="543.9820334511707" cy="-43.98203345117065" r="2" fill="red" />
<circle cx="495.8269149120686" cy="4.173085087931383" r="2" fill="red" />
<circle cx="471.89474880415025" cy="28.105251195849746" r="2" fill="red" />
<circle cx="482.324463829554" cy="17.67553617044598" r="2" fill="red" />
<circle cx="486.7359651128371" cy="13.264034887162921" r="2" fill="red" />
<circle cx="550.7565337125066" cy="-50.756533712506496" r="2" fill="red" />
<circle cx="529.1884055312653" cy="-29.18840553126529" r="2" fill="red" />
<circle cx="534.9416793262682" cy="-34.94167932626817" r="2" fill="red" />
<circle cx="583.5451881795155" cy="-83.54518817951555" r="2" fill="red" />
<circle cx="595.43934839212" cy="-95.43934839212" r="2" fill="red" />
<circle cx="540.7862262152964" cy="-40.78622621529638" r="2" fill="red" />
<circle cx="509.5722402661383" cy="-9.572240266138294" r="2" fill="red" />
<circle cx="465.9509253065428" cy="34.04907469345724" r="2" fill="red" />
<circle cx="489.0121236034021" cy="10.987876396597898" r="2" fill="red" />
<circle cx="531.0159917455817" cy="-31.015991745581744" r="2" fill="red" />
<circle cx="548.3806507224233" cy="-48.3806507224233" r="2" fill="red" />
<circle cx="554.4738434843744" cy="-54.4738434843743" r="2" fill="red" />
<circle cx="526.156924471727" cy="-26.156924471727052" r="2" fill="red" />
<circle cx="519.3857657872156" cy="-19.385765787215632" r="2" fill="red" />
<circle cx="553.4217904638836" cy="-53.42179046388361" r="2" fill="red" />
<circle cx="506.0637216054751" cy="-6.063721605475109" r="2" fill="red" />
<circle cx="479.70499182489095" cy="20.295008175109075" r="2" fill="red" />
<circle cx="458.25891316759663" cy="41.74108683240337" r="2" fill="red" />
<circle cx="461.3023705719878" cy="38.69762942801219" r="2" fill="red" />
<circle cx="542.0467522819151" cy="-42.04675228191513" r="2" fill="red" />
<circle cx="573.085595698437" cy="-73.08559569843703" r="2" fill="red" />
<circle cx="521.3703968143993" cy="-21.37039681439927" r="2" fill="red" />
<circle cx="535.0069386641974" cy="-35.006938664197435" r="2" fill="red" />
<circle cx="492.5701735636451" cy="7.429826436354915" r="2" fill="red" />
<circle cx="461.9983277948269" cy="38.00167220517315" r="2" fill="red" />
<circle cx="559.3311125086632" cy="-59.33111250866318" r="2" fill="red" />
<circle cx="486.232070273761" cy="13.767929726239004" r="2" fill="red" />
<circle cx="543.142819498197" cy="-43.14281949819707" r="2" fill="red" />
<circle cx="523.9546320818278" cy="-23.954632081827754" r="2" fill="red" />
<circle cx="518.3509172794686" cy="-18.350917279468604" r="2" fill="red" />
<circle cx="565.9737133889503" cy="-65.97371338895033" r="2" fill="red" />
<circle cx="554.4324297976761" cy="-54.43242979767609" r="2" fill="red" />
<circle cx="562.1029830513669" cy="-62.102983051366834" r="2" fill="red" />
<circle cx="488.14937897516" cy="11.850621024839995" r="2" fill="red" />
<circle cx="570.248835109659" cy="-70.24883510965901" r="2" fill="red" />
<circle cx="471.64434863056545" cy="28.355651369434554" r="2" fill="red" />
<circle cx="522.03930387691" cy="-22.03930387690997" r="2" fill="red" />
<circle cx="562.8175658691544" cy="-62.81756586915441" r="2" fill="red" />
<circle cx="545.2318480853792" cy="-45.23184808537911" r="2" fill="red" />
<circle cx="475.89680084009353" cy="24.10319915990644" r="2" fill="red" />
<circle cx="463.50073514843746" cy="36.49926485156257" r="2" fill="red" />
<circle cx="506.0844479951715" cy="-6.084447995171502" r="2" fill="red" />
<circle cx="506.8265674162649" cy="-6.826567416264879" r="2" fill="red" />
<circle cx="501.97075379622845" cy="-1.970753796228479" r="2" fill="red" />
<circle cx="550.3399145170711" cy="-50.33991451707112" r="2" fill="red" />
<circle cx="496.71341248129573" cy="3.286587518704266" r="2" fill="red" />
<circle cx="462.5517684895632" cy="37.44823151043681" r="2" fill="red" />
<circle cx="464.5359189040997" cy="35.464081095900326" r="2" fill="red" />
<circle cx="530.0472957086834" cy="-30.047295708683407" r="2" fill="red" />
<circle cx="474.8885078218515" cy="25.111492178148495" r="2" fill="red" />
<circle cx="466.81812452321856" cy="33.181875476781414" r="2" fill="red" />
<circle cx="553.9979653396542" cy="-53.99796533965423" r="2" fill="red" />
<circle cx="496.55193465308366" cy="3.4480653469163656" r="2" fill="red" />
<circle cx="476.93617674266716" cy="23.063823257332842" r="2" fill="red" />
<circle cx="586.1290569211341" cy="-86.12905692113407" r="2" fill="red" />
<circle cx="526.2336329053737" cy="-26.233632905373668" r="2" fill="red" />
<circle cx="513.1593593044408" cy="-13.159359304440784" r="2" fill="red" />
<circle cx="515.4935186062115" cy="-15.493518606211524" r="2" fill="red" />
<circle cx="568.7561367010985" cy="-68.75613670109857" r="2" fill="red" />
<circle cx="492.12622161271145" cy="7.873778387288553" r="2" fill="red" />
<circle cx="527.7385417750868" cy="-27.73854177508673" r="2" fill="red" />
<circle cx="472.19356067750215" cy="27.80643932249785" r="2" fill="red" />
<circle cx="482.3745538444447" cy="17.625446155555323" r="2" fill="red" />
<circle cx="498.24268315974416" cy="1.7573168402558679" r="2" fill="red" />
<circle cx="516.6795260966651" cy="-16.67952609666503" r="2" fill="red" />
<circle cx="558.5661971197327" cy="-58.56619711973269" r="2" fill="red" />
<circle cx="520.7831185580987" cy="-20.783118558098693" r="2" fill="red" />
<circle cx="495.34158796053316" cy="4.658412039466839" r="2" fill="red" />
<circle cx="531.2132429775006" cy="-31.213242977500556" r="2" fill="red" />
<circle cx="504.9797701752211" cy="-4.97977017522112" r="2" fill="red" />
<circle cx="496.3625422870822" cy="3.6374577129177794" r="2" fill="red" />
<circle cx="593.8038162091009" cy="-93.80381620910094" r="2" fill="red" />
<circle cx="537.4513628537832" cy="-37.451362853783166" r="2" fill="red" />
<circle cx="564.8392645130187" cy="-64.83926451301875" r="2" fill="red" />
<circle cx="567.5375121590605" cy="-67.5375121590605" r="2" fill="red" />
<circle cx="550.936122867341" cy="-50.93612286734111" r="2" fill="red" />
<circle cx="536.908873669849" cy="-36.90887366984896" r="2" fill="red" />
<circle cx="462.8659871187712" cy="37.134012881228784" r="2" fill="red" />
<circle cx="552.5702974940473" cy="-52.57029749404734" r="2" fill="red" />
<circle cx="472.34626731410026" cy="27.653732685899712" r="2" fill="red" />
<circle cx="482.4270814407929" cy="17.572918559207096" r="2" fill="red" />
<circle cx="538.3928540565992" cy="-38.392854056599106" r="2" fill="red" />
<circle cx="521.3099322364498" cy="-21.309932236449754" r="2" fill="red" />
<circle cx="515.7590399557341" cy="-15.759039955734181" r="2" fill="red" />
<circle cx="521.4084958315832" cy="-21.408495831583252" r="2" fill="red" />
<circle cx="555.547348156316" cy="-55.54734815631599" r="2" fill="red" />
<circle cx="544.7423215000167" cy="-44.742321500016715" r="2" fill="red" />
<circle cx="473.63534829623745" cy="26.364651703762547" r="2" fill="red" />
<circle cx="560.3761499447857" cy="-60.37614994478565" r="2" fill="red" />
<circle cx="494.63778794985245" cy="5.362212050147548" r="2" fill="red" />
<circle cx="541.8739040984926" cy="-41.87390409849269" r="2" fill="red" />
<circle cx="579.9894118087509" cy="-79.98941180875084" r="2" fill="red" />
<circle cx="514.4022444822897" cy="-14.402244482289632" r="2" fill="red" />
<circle cx="515.3429687040734" cy="-15.342968704073428" r="2" fill="red" />
<circle cx="456.39119304515447" cy="43.608806954845534" r="2" fill="red" />
<circle cx="510.54630689904076" cy="-10.546306899040758" r="2" fill="red" />
<circle cx="537.614904614186" cy="-37.614904614186" r="2" fill="red" />
<circle cx="478.5421924570343" cy="21.457807542965753" r="2" fill="red" />
<circle cx="504.20346035111646" cy="-4.203460351116462" r="2" fill="red" />
<circle cx="536.7703988741645" cy="-36.77039887416447" r="2" fill="red" />
<circle cx="534.5558908477662" cy="-34.55589084776625" r="2" fill="red" />
<circle cx="549.9702494261505" cy="-49.970249426150474" r="2" fill="red" />
<circle cx="544.1024127161459" cy="-44.10241271614592" r="2" fill="red" />
<circle cx="510.0696761166258" cy="-10.069676116625828" r="2" fill="red" />
<circle cx="515.6056808489805" cy="-15.605680848980455" r="2" fill="red" />
<circle cx="524.1709556590813" cy="-24.170955659081244" r="2" fill="red" />
<circle cx="577.8772220063645" cy="-77.87722200636443" r="2" fill="red" />
<circle cx="532.8244967361488" cy="-32.82449673614889" r="2" fill="red" />
<circle cx="501.2262086790314" cy="-1.226208679031373" r="2" fill="red" />
<circle cx="546.5523166749825" cy="-46.552316674982535" r="2" fill="red" />
<circle cx="515.9663260493153" cy="-15.966326049315285" r="2" fill="red" />
<circle cx="547.7493451337598" cy="-47.74934513375973" r="2" fill="red" />
<circle cx="507.91984952418267" cy="-7.919849524182666" r="2" fill="red" />
<circle cx="501.33673584471944" cy="-1.3367358447194135" r="2" fill="red" />
<circle cx="508.60766839700887" cy="-8.607668397008865" r="2" fill="red" />
<circle cx="530.8795354749767" cy="-30.879535474976706" r="2" fill="red" />
<circle cx="558.6361900251458" cy="-58.636190025145766" r="2" fill="red" />
<circle cx="483.94688129232964" cy="16.053118707670365" r="2" fill="red" />
<circle cx="539.4456711958042" cy="-39.445671195804096" r="2" fill="red" />
<circle cx="540.6755293807464" cy="-40.67552938074641" r="2" fill="red" />
<circle cx="509.05821224632484" cy="-9.058212246324842" r="2" fill="red" />
<circle cx="526.9548823851769" cy="-26.954882385176973" r="2" fill="red" />
<circle cx="500.667145888394" cy="-0.6671458883939749" r="2" fill="red" />
<circle cx="520.3590330077202" cy="-20.359033007720143" r="2" fill="red" />
<circle cx="494.15909940819824" cy="5.840900591801756" r="2" fill="red" />
<circle cx="550.3075651263387" cy="-50.307565126338716" r="2" fill="red" />
<circle cx="555.1378674028352" cy="-55.13786740283524" r="2" fill="red" />
<circle cx="556.2901109152485" cy="-56.29011091524859" r="2" fill="red" />
<circle cx="487.7946485604232" cy="12.205351439576816" r="2" fill="red" />
<circle cx="468.9389839296973" cy="31.061016070302685" r="2" fill="red" />
<circle cx="559.2351006578313" cy="-59.23510065783131" r="2" fill="red" />
<circle cx="452.6286626344332" cy="47.371337365566745" r="2" fill="red" />
<circle cx="528.633617245151" cy="-28.63361724515096" r="2" fill="red" />
<circle cx="566.0542606526337" cy="-66.05426065263367" r="2" fill="red" />
<circle cx="520.7356362387092" cy="-20.735636238709162" r="2" fill="red" />
<circle cx="517.8026277380936" cy="-17.802627738093577" r="2" fill="red" />
<circle cx="542.4241130654382" cy="-42.424113065438235" r="2" fill="red" />
<circle cx="504.80004666246083" cy="-4.800046662460829" r="2" fill="red" />
<circle cx="548.3536052685954" cy="-48.35360526859546" r="2" fill="red" />
<circle cx="540.2598424421196" cy="-40.25984244211958" r="2" fill="red" />
<circle cx="514.5124662067267" cy="-14.512466206726629" r="2" fill="red" />
<circle cx="543.716304332017" cy="-43.71630433201693" r="2" fill="red" />
<circle cx="539.0085872580903" cy="-39.00858725809036" r="2" fill="red" />
<circle cx="544.3342487318663" cy="-44.334248731866296" r="2" fill="red" />
<circle cx="471.117562290633" cy="28.882437709367025" r="2" fill="red" />
<circle cx="488.6289780347172" cy="11.371021965282836" r="2" fill="red" />
<circle cx="499.7539344667549" cy="0.24606553324508695" r="2" fill="red" />
<circle cx="492.16867874908445" cy="7.8313212509155505" r="2" fill="red" />
<circle cx="540.5907844238856" cy="-40.590784423885566" r="2" fill="red" />
<circle cx="524.891586476459" cy="-24.891586476458997" r="2" fill="red" />
<circle cx="520.5169611986706" cy="-20.51696119867063" r="2" fill="red" />
<circle cx="546.0909239926459" cy="-46.09092399264591" r="2" fill="red" />
<circle cx="500.8262062063534" cy="-0.826206206353362" r="2" fill="red" />
<circle cx="468.9993902962252" cy="31.000609703774785" r="2" fill="red" />
<circle cx="584.0654595409976" cy="-84.06545954099761" r="2" fill="red" />
<circle cx="514.9062659043022" cy="-14.906265904302302" r="2" fill="red" />
<circle cx="468.0134790184637" cy="31.986520981536245" r="2" fill="red" />
<circle cx="496.03833226736714" cy="3.9616677326328613" r="2" fill="red" />
<circle cx="503.26653446368425" cy="-3.266534463684252" r="2" fill="red" />
<circle cx="454.15365357485916" cy="45.84634642514081" r="2" fill="red" />
<circle cx="494.46266747223444" cy="5.537332527765528" r="2" fill="red" />
<circle cx="541.0737126906345" cy="-41.07371269063452" r="2" fill="red" />
<circle cx="521.3529151264996" cy="-21.352915126499624" r="2" fill="red" />
<circle cx="519.5901295601361" cy="-19.590129560136063" r="2" fill="red" />
<circle cx="495.04608243313953" cy="4.95391756686044" r="2" fill="red" />
<circle cx="528.359287008112" cy="-28.35928700811195" r="2" fill="red" />
<circle cx="517.5843310083278" cy="-17.58433100832775" r="2" fill="red" />
<circle cx="507.2688571165053" cy="-7.2688571165052736" r="2" fill="red" />
</svg>